<svg xmlns="http://www.w3.org/2000/svg" xmlns:xlink="http://www.w3.org/1999/xlink" width="606" zoomAndPan="magnify" viewBox="0 0 454.5 129.750003" height="173" preserveAspectRatio="xMidYMid meet" version="1.0"><defs><g/><clipPath id="207b394938"><path d="M 0.1875 0 L 453.8125 0 L 453.8125 129.5 L 0.1875 129.5 Z M 0.1875 0 " clip-rule="nonzero"/></clipPath><clipPath id="88b738f256"><path d="M 3.152344 3 L 126.210938 3 L 126.210938 126.058594 L 3.152344 126.058594 Z M 3.152344 3 " clip-rule="nonzero"/></clipPath><clipPath id="f1eafc4f73"><path d="M 0.1875 0 L 130 0 L 130 129.5 L 0.1875 129.5 Z M 0.1875 0 " clip-rule="nonzero"/></clipPath><clipPath id="f199440917"><path d="M -66.246094 62.953125 L 61.636719 -64.933594 L 130.695312 4.125 L 2.8125 132.007812 Z M -66.246094 62.953125 " clip-rule="nonzero"/></clipPath><clipPath id="819826452c"><path d="M -66.246094 62.953125 L 61.636719 -64.933594 L 130.695312 4.125 L 2.8125 132.007812 Z M -66.246094 62.953125 " clip-rule="nonzero"/></clipPath></defs><g clip-path="url(#207b394938)"><path fill="#ffffff" d="M 0.1875 0 L 453.8125 0 L 453.8125 129.5 L 0.1875 129.5 Z M 0.1875 0 " fill-opacity="1" fill-rule="nonzero"/><path fill="#ffffff" d="M 0.1875 0 L 453.8125 0 L 453.8125 129.5 L 0.1875 129.5 Z M 0.1875 0 " fill-opacity="1" fill-rule="nonzero"/></g><g clip-path="url(#88b738f256)"><path fill="#e94b27" d="M 3.152344 3 L 126.210938 3 L 126.210938 126.058594 L 3.152344 126.058594 Z M 3.152344 3 " fill-opacity="1" fill-rule="nonzero"/></g><g clip-path="url(#f1eafc4f73)"><g clip-path="url(#f199440917)"><g clip-path="url(#819826452c)"><path fill="#ffffff" d="M 124.402344 -2.082031 L 81.0625 39.6875 L 112.167969 -11.800781 C 112.226562 -11.898438 112.246094 -12.011719 112.21875 -12.117188 C 112.191406 -12.226562 112.125 -12.316406 112.03125 -12.375 L 106.324219 -15.816406 C 106.128906 -15.933594 105.859375 -15.875 105.753906 -15.675781 L 74.136719 35.792969 L 90.640625 -22.253906 C 90.699219 -22.476562 90.574219 -22.707031 90.351562 -22.769531 L 83.941406 -24.609375 C 83.71875 -24.671875 83.492188 -24.546875 83.425781 -24.332031 L 65.785156 33.910156 L 64.972656 -26.738281 C 64.972656 -26.96875 64.785156 -27.152344 64.554688 -27.148438 L 57.878906 -27.078125 C 57.648438 -27.078125 57.464844 -26.886719 57.464844 -26.660156 L 58.046875 33.539062 L 42.015625 -24.464844 C 41.984375 -24.570312 41.914062 -24.660156 41.820312 -24.714844 C 41.722656 -24.769531 41.605469 -24.785156 41.503906 -24.753906 L 35.039062 -22.960938 C 34.816406 -22.902344 34.691406 -22.675781 34.746094 -22.453125 L 50.449219 35.871094 L 19.589844 -15.957031 C 19.472656 -16.15625 19.21875 -16.21875 19.019531 -16.101562 L 13.269531 -12.707031 C 13.171875 -12.652344 13.101562 -12.558594 13.078125 -12.453125 C 13.046875 -12.34375 13.0625 -12.230469 13.121094 -12.136719 L 43.828125 39.59375 L 1.15625 -2.761719 C 0.992188 -2.925781 0.730469 -2.925781 0.566406 -2.761719 L -4.148438 1.953125 C -4.308594 2.117188 -4.3125 2.378906 -4.148438 2.542969 L 38.292969 44.984375 L -13.285156 14.273438 C -13.378906 14.214844 -13.496094 14.195312 -13.601562 14.226562 C -13.710938 14.25 -13.804688 14.320312 -13.855469 14.417969 L -17.253906 20.171875 C -17.367188 20.367188 -17.304688 20.625 -17.109375 20.738281 L 34.722656 51.597656 L -23.601562 35.898438 C -23.824219 35.839844 -24.054688 35.964844 -24.109375 36.191406 L -25.902344 42.652344 C -25.933594 42.757812 -25.917969 42.871094 -25.863281 42.96875 C -25.808594 43.066406 -25.71875 43.136719 -25.613281 43.164062 L 32.390625 59.199219 L -27.808594 58.617188 C -28.035156 58.617188 -28.230469 58.796875 -28.226562 59.03125 L -28.296875 65.703125 C -28.300781 65.933594 -28.117188 66.121094 -27.886719 66.121094 L 32.761719 66.933594 L -25.480469 84.574219 C -25.695312 84.648438 -25.820312 84.871094 -25.757812 85.089844 L -23.917969 91.503906 C -23.855469 91.722656 -23.628906 91.851562 -23.40625 91.789062 L 34.644531 75.285156 L -16.828125 106.90625 C -17.019531 107 -17.085938 107.277344 -16.964844 107.472656 L -13.523438 113.179688 C -13.46875 113.273438 -13.375 113.34375 -13.269531 113.367188 C -13.160156 113.394531 -13.046875 113.378906 -12.953125 113.320312 L 38.535156 82.210938 L -3.234375 125.550781 C -3.394531 125.714844 -3.386719 125.976562 -3.222656 126.140625 L 1.5625 130.785156 C 1.726562 130.945312 1.988281 130.941406 2.148438 130.78125 L 129.632812 3.296875 C 129.792969 3.136719 129.796875 2.878906 129.636719 2.714844 L 124.988281 -2.074219 C 124.828125 -2.238281 124.566406 -2.242188 124.402344 -2.082031 Z M 124.402344 -2.082031 " fill-opacity="1" fill-rule="nonzero"/></g></g></g><g fill="#001639" fill-opacity="1"><g transform="translate(159.239641, 58.30811)"><g><path d="M 14.859375 0.65625 C 12.429688 0.65625 10.300781 0.265625 8.46875 -0.515625 C 6.632812 -1.304688 5.164062 -2.398438 4.0625 -3.796875 C 2.96875 -5.191406 2.3125 -6.804688 2.09375 -8.640625 L 9.1875 -8.640625 C 9.40625 -7.578125 10 -6.664062 10.96875 -5.90625 C 11.945312 -5.15625 13.207031 -4.78125 14.75 -4.78125 C 16.289062 -4.78125 17.414062 -5.09375 18.125 -5.71875 C 18.84375 -6.34375 19.203125 -7.0625 19.203125 -7.875 C 19.203125 -9.039062 18.6875 -9.832031 17.65625 -10.25 C 16.632812 -10.675781 15.207031 -11.09375 13.375 -11.5 C 12.195312 -11.757812 11.003906 -12.070312 9.796875 -12.4375 C 8.585938 -12.800781 7.476562 -13.265625 6.46875 -13.828125 C 5.457031 -14.398438 4.640625 -15.132812 4.015625 -16.03125 C 3.390625 -16.9375 3.078125 -18.046875 3.078125 -19.359375 C 3.078125 -21.785156 4.039062 -23.820312 5.96875 -25.46875 C 7.894531 -27.125 10.597656 -27.953125 14.078125 -27.953125 C 17.304688 -27.953125 19.882812 -27.195312 21.8125 -25.6875 C 23.738281 -24.1875 24.882812 -22.113281 25.25 -19.46875 L 18.59375 -19.46875 C 18.1875 -21.488281 16.664062 -22.5 14.03125 -22.5 C 12.707031 -22.5 11.6875 -22.238281 10.96875 -21.71875 C 10.257812 -21.207031 9.90625 -20.570312 9.90625 -19.8125 C 9.90625 -19 10.4375 -18.351562 11.5 -17.875 C 12.5625 -17.40625 13.972656 -16.96875 15.734375 -16.5625 C 17.640625 -16.125 19.390625 -15.632812 20.984375 -15.09375 C 22.578125 -14.5625 23.851562 -13.773438 24.8125 -12.734375 C 25.769531 -11.691406 26.25 -10.195312 26.25 -8.25 C 26.28125 -6.5625 25.835938 -5.039062 24.921875 -3.6875 C 24.003906 -2.332031 22.679688 -1.269531 20.953125 -0.5 C 19.234375 0.269531 17.203125 0.65625 14.859375 0.65625 Z M 14.859375 0.65625 "/></g></g></g><g fill="#001639" fill-opacity="1"><g transform="translate(186.905287, 58.30811)"><g><path d="M 13.8125 0.65625 C 10.394531 0.65625 7.757812 -0.40625 5.90625 -2.53125 C 4.0625 -4.65625 3.140625 -7.773438 3.140625 -11.890625 L 3.140625 -27.28125 L 10.125 -27.28125 L 10.125 -12.546875 C 10.125 -10.191406 10.597656 -8.390625 11.546875 -7.140625 C 12.503906 -5.898438 14.007812 -5.28125 16.0625 -5.28125 C 18.007812 -5.28125 19.613281 -5.976562 20.875 -7.375 C 22.144531 -8.769531 22.78125 -10.710938 22.78125 -13.203125 L 22.78125 -27.28125 L 29.8125 -27.28125 L 29.8125 0 L 23.609375 0 L 23.046875 -4.625 C 22.203125 -3.007812 20.984375 -1.722656 19.390625 -0.765625 C 17.796875 0.179688 15.9375 0.65625 13.8125 0.65625 Z M 13.8125 0.65625 "/></g></g></g><g fill="#001639" fill-opacity="1"><g transform="translate(219.13611, 58.30811)"><g><path d="M 3.578125 0 L 3.578125 -27.28125 L 9.796875 -27.28125 L 10.34375 -22.671875 C 11.1875 -24.285156 12.40625 -25.566406 14 -26.515625 C 15.59375 -27.472656 17.472656 -27.953125 19.640625 -27.953125 C 23.015625 -27.953125 25.632812 -26.882812 27.5 -24.75 C 29.375 -22.625 30.3125 -19.507812 30.3125 -15.40625 L 30.3125 0 L 23.265625 0 L 23.265625 -14.75 C 23.265625 -17.09375 22.785156 -18.882812 21.828125 -20.125 C 20.878906 -21.375 19.398438 -22 17.390625 -22 C 15.410156 -22 13.785156 -21.300781 12.515625 -19.90625 C 11.253906 -18.519531 10.625 -16.578125 10.625 -14.078125 L 10.625 0 Z M 3.578125 0 "/></g></g></g><g fill="#001639" fill-opacity="1"><g transform="translate(251.366938, 58.30811)"><g><path d="M 14.859375 0.65625 C 12.429688 0.65625 10.300781 0.265625 8.46875 -0.515625 C 6.632812 -1.304688 5.164062 -2.398438 4.0625 -3.796875 C 2.96875 -5.191406 2.3125 -6.804688 2.09375 -8.640625 L 9.1875 -8.640625 C 9.40625 -7.578125 10 -6.664062 10.96875 -5.90625 C 11.945312 -5.15625 13.207031 -4.78125 14.75 -4.78125 C 16.289062 -4.78125 17.414062 -5.09375 18.125 -5.71875 C 18.84375 -6.34375 19.203125 -7.0625 19.203125 -7.875 C 19.203125 -9.039062 18.6875 -9.832031 17.65625 -10.25 C 16.632812 -10.675781 15.207031 -11.09375 13.375 -11.5 C 12.195312 -11.757812 11.003906 -12.070312 9.796875 -12.4375 C 8.585938 -12.800781 7.476562 -13.265625 6.46875 -13.828125 C 5.457031 -14.398438 4.640625 -15.132812 4.015625 -16.03125 C 3.390625 -16.9375 3.078125 -18.046875 3.078125 -19.359375 C 3.078125 -21.785156 4.039062 -23.820312 5.96875 -25.46875 C 7.894531 -27.125 10.597656 -27.953125 14.078125 -27.953125 C 17.304688 -27.953125 19.882812 -27.195312 21.8125 -25.6875 C 23.738281 -24.1875 24.882812 -22.113281 25.25 -19.46875 L 18.59375 -19.46875 C 18.1875 -21.488281 16.664062 -22.5 14.03125 -22.5 C 12.707031 -22.5 11.6875 -22.238281 10.96875 -21.71875 C 10.257812 -21.207031 9.90625 -20.570312 9.90625 -19.8125 C 9.90625 -19 10.4375 -18.351562 11.5 -17.875 C 12.5625 -17.40625 13.972656 -16.96875 15.734375 -16.5625 C 17.640625 -16.125 19.390625 -15.632812 20.984375 -15.09375 C 22.578125 -14.5625 23.851562 -13.773438 24.8125 -12.734375 C 25.769531 -11.691406 26.25 -10.195312 26.25 -8.25 C 26.28125 -6.5625 25.835938 -5.039062 24.921875 -3.6875 C 24.003906 -2.332031 22.679688 -1.269531 20.953125 -0.5 C 19.234375 0.269531 17.203125 0.65625 14.859375 0.65625 Z M 14.859375 0.65625 "/></g></g></g><g fill="#001639" fill-opacity="1"><g transform="translate(279.032579, 58.30811)"><g><path d="M 16.9375 0.65625 C 14.15625 0.65625 11.695312 0.0507812 9.5625 -1.15625 C 7.4375 -2.363281 5.757812 -4.050781 4.53125 -6.21875 C 3.3125 -8.382812 2.703125 -10.859375 2.703125 -13.640625 C 2.703125 -16.429688 3.3125 -18.90625 4.53125 -21.0625 C 5.757812 -23.226562 7.4375 -24.914062 9.5625 -26.125 C 11.695312 -27.34375 14.15625 -27.953125 16.9375 -27.953125 C 20.425781 -27.953125 23.363281 -27.039062 25.75 -25.21875 C 28.132812 -23.40625 29.65625 -20.90625 30.3125 -17.71875 L 22.890625 -17.71875 C 22.523438 -19.039062 21.800781 -20.078125 20.71875 -20.828125 C 19.632812 -21.578125 18.359375 -21.953125 16.890625 -21.953125 C 14.941406 -21.953125 13.289062 -21.21875 11.9375 -19.75 C 10.582031 -18.28125 9.90625 -16.242188 9.90625 -13.640625 C 9.90625 -11.035156 10.582031 -9 11.9375 -7.53125 C 13.289062 -6.070312 14.941406 -5.34375 16.890625 -5.34375 C 18.359375 -5.34375 19.632812 -5.707031 20.71875 -6.4375 C 21.800781 -7.164062 22.523438 -8.210938 22.890625 -9.578125 L 30.3125 -9.578125 C 29.65625 -6.492188 28.132812 -4.015625 25.75 -2.140625 C 23.363281 -0.273438 20.425781 0.65625 16.9375 0.65625 Z M 16.9375 0.65625 "/></g></g></g><g fill="#001639" fill-opacity="1"><g transform="translate(310.823391, 58.30811)"><g><path d="M 12.984375 0.65625 C 10.640625 0.65625 8.710938 0.28125 7.203125 -0.46875 C 5.703125 -1.21875 4.582031 -2.21875 3.84375 -3.46875 C 3.113281 -4.71875 2.75 -6.09375 2.75 -7.59375 C 2.75 -10.125 3.738281 -12.175781 5.71875 -13.75 C 7.695312 -15.332031 10.671875 -16.125 14.640625 -16.125 L 21.5625 -16.125 L 21.5625 -16.78125 C 21.5625 -18.644531 21.03125 -20.015625 19.96875 -20.890625 C 18.90625 -21.773438 17.585938 -22.21875 16.015625 -22.21875 C 14.578125 -22.21875 13.328125 -21.878906 12.265625 -21.203125 C 11.203125 -20.523438 10.539062 -19.523438 10.28125 -18.203125 L 3.40625 -18.203125 C 3.59375 -20.191406 4.265625 -21.914062 5.421875 -23.375 C 6.578125 -24.84375 8.070312 -25.972656 9.90625 -26.765625 C 11.738281 -27.554688 13.789062 -27.953125 16.0625 -27.953125 C 19.945312 -27.953125 23.007812 -26.976562 25.25 -25.03125 C 27.488281 -23.082031 28.609375 -20.332031 28.609375 -16.78125 L 28.609375 0 L 22.609375 0 L 21.953125 -4.40625 C 21.140625 -2.9375 20.007812 -1.722656 18.5625 -0.765625 C 17.113281 0.179688 15.253906 0.65625 12.984375 0.65625 Z M 14.578125 -4.84375 C 16.597656 -4.84375 18.164062 -5.5 19.28125 -6.8125 C 20.394531 -8.132812 21.101562 -9.769531 21.40625 -11.71875 L 15.40625 -11.71875 C 13.53125 -11.71875 12.1875 -11.378906 11.375 -10.703125 C 10.570312 -10.023438 10.171875 -9.191406 10.171875 -8.203125 C 10.171875 -7.140625 10.570312 -6.3125 11.375 -5.71875 C 12.1875 -5.132812 13.253906 -4.84375 14.578125 -4.84375 Z M 14.578125 -4.84375 "/></g></g></g><g fill="#001639" fill-opacity="1"><g transform="translate(341.349153, 58.30811)"><g><path d="M 3.578125 0 L 3.578125 -39.609375 L 10.625 -39.609375 L 10.625 0 Z M 3.578125 0 "/></g></g></g><g fill="#001639" fill-opacity="1"><g transform="translate(354.384255, 58.30811)"><g><path d="M 16.828125 0.65625 C 14.078125 0.65625 11.640625 0.0703125 9.515625 -1.09375 C 7.390625 -2.269531 5.722656 -3.921875 4.515625 -6.046875 C 3.304688 -8.179688 2.703125 -10.640625 2.703125 -13.421875 C 2.703125 -16.242188 3.296875 -18.753906 4.484375 -20.953125 C 5.671875 -23.160156 7.316406 -24.878906 9.421875 -26.109375 C 11.535156 -27.335938 14.023438 -27.953125 16.890625 -27.953125 C 19.566406 -27.953125 21.929688 -27.363281 23.984375 -26.1875 C 26.035156 -25.007812 27.640625 -23.398438 28.796875 -21.359375 C 29.953125 -19.328125 30.53125 -17.066406 30.53125 -14.578125 C 30.53125 -14.171875 30.519531 -13.75 30.5 -13.3125 C 30.488281 -12.875 30.460938 -12.414062 30.421875 -11.9375 L 9.6875 -11.9375 C 9.832031 -9.8125 10.570312 -8.140625 11.90625 -6.921875 C 13.25 -5.710938 14.875 -5.109375 16.78125 -5.109375 C 18.207031 -5.109375 19.40625 -5.429688 20.375 -6.078125 C 21.351562 -6.722656 22.082031 -7.554688 22.5625 -8.578125 L 29.703125 -8.578125 C 29.191406 -6.859375 28.335938 -5.289062 27.140625 -3.875 C 25.953125 -2.46875 24.488281 -1.359375 22.75 -0.546875 C 21.007812 0.253906 19.035156 0.65625 16.828125 0.65625 Z M 16.890625 -22.21875 C 15.160156 -22.21875 13.632812 -21.734375 12.3125 -20.765625 C 11 -19.796875 10.160156 -18.320312 9.796875 -16.34375 L 23.375 -16.34375 C 23.269531 -18.132812 22.609375 -19.5625 21.390625 -20.625 C 20.179688 -21.6875 18.679688 -22.21875 16.890625 -22.21875 Z M 16.890625 -22.21875 "/></g></g></g><g fill="#001639" fill-opacity="1"><g transform="translate(386.065046, 58.30811)"><g><path d="M 13.8125 0.65625 C 10.394531 0.65625 7.757812 -0.40625 5.90625 -2.53125 C 4.0625 -4.65625 3.140625 -7.773438 3.140625 -11.890625 L 3.140625 -27.28125 L 10.125 -27.28125 L 10.125 -12.546875 C 10.125 -10.191406 10.597656 -8.390625 11.546875 -7.140625 C 12.503906 -5.898438 14.007812 -5.28125 16.0625 -5.28125 C 18.007812 -5.28125 19.613281 -5.976562 20.875 -7.375 C 22.144531 -8.769531 22.78125 -10.710938 22.78125 -13.203125 L 22.78125 -27.28125 L 29.8125 -27.28125 L 29.8125 0 L 23.609375 0 L 23.046875 -4.625 C 22.203125 -3.007812 20.984375 -1.722656 19.390625 -0.765625 C 17.796875 0.179688 15.9375 0.65625 13.8125 0.65625 Z M 13.8125 0.65625 "/></g></g></g><g fill="#001639" fill-opacity="1"><g transform="translate(418.295864, 58.30811)"><g><path d="M 3.578125 12.109375 L 3.578125 -27.28125 L 9.84375 -27.28125 L 10.625 -23.375 C 11.5 -24.59375 12.660156 -25.660156 14.109375 -26.578125 C 15.554688 -27.492188 17.4375 -27.953125 19.75 -27.953125 C 22.320312 -27.953125 24.613281 -27.328125 26.625 -26.078125 C 28.644531 -24.828125 30.238281 -23.117188 31.40625 -20.953125 C 32.582031 -18.796875 33.171875 -16.34375 33.171875 -13.59375 C 33.171875 -10.84375 32.582031 -8.394531 31.40625 -6.25 C 30.238281 -4.101562 28.644531 -2.414062 26.625 -1.1875 C 24.613281 0.0390625 22.320312 0.65625 19.75 0.65625 C 17.695312 0.65625 15.898438 0.269531 14.359375 -0.5 C 12.816406 -1.269531 11.570312 -2.347656 10.625 -3.734375 L 10.625 12.109375 Z M 18.265625 -5.5 C 20.503906 -5.5 22.351562 -6.25 23.8125 -7.75 C 25.28125 -9.257812 26.015625 -11.207031 26.015625 -13.59375 C 26.015625 -15.976562 25.28125 -17.9375 23.8125 -19.46875 C 22.351562 -21.007812 20.503906 -21.78125 18.265625 -21.78125 C 15.992188 -21.78125 14.132812 -21.019531 12.6875 -19.5 C 11.238281 -17.976562 10.515625 -16.023438 10.515625 -13.640625 C 10.515625 -11.253906 11.238281 -9.300781 12.6875 -7.78125 C 14.132812 -6.257812 15.992188 -5.5 18.265625 -5.5 Z M 18.265625 -5.5 "/></g></g></g><g fill="#001639" fill-opacity="1"><g transform="translate(159.239641, 102.965415)"><g><path d="M 16.9375 0.65625 C 14.15625 0.65625 11.695312 0.0507812 9.5625 -1.15625 C 7.4375 -2.363281 5.757812 -4.050781 4.53125 -6.21875 C 3.3125 -8.382812 2.703125 -10.859375 2.703125 -13.640625 C 2.703125 -16.429688 3.3125 -18.90625 4.53125 -21.0625 C 5.757812 -23.226562 7.4375 -24.914062 9.5625 -26.125 C 11.695312 -27.34375 14.15625 -27.953125 16.9375 -27.953125 C 20.425781 -27.953125 23.363281 -27.039062 25.75 -25.21875 C 28.132812 -23.40625 29.65625 -20.90625 30.3125 -17.71875 L 22.890625 -17.71875 C 22.523438 -19.039062 21.800781 -20.078125 20.71875 -20.828125 C 19.632812 -21.578125 18.359375 -21.953125 16.890625 -21.953125 C 14.941406 -21.953125 13.289062 -21.21875 11.9375 -19.75 C 10.582031 -18.28125 9.90625 -16.242188 9.90625 -13.640625 C 9.90625 -11.035156 10.582031 -9 11.9375 -7.53125 C 13.289062 -6.070312 14.941406 -5.34375 16.890625 -5.34375 C 18.359375 -5.34375 19.632812 -5.707031 20.71875 -6.4375 C 21.800781 -7.164062 22.523438 -8.210938 22.890625 -9.578125 L 30.3125 -9.578125 C 29.65625 -6.492188 28.132812 -4.015625 25.75 -2.140625 C 23.363281 -0.273438 20.425781 0.65625 16.9375 0.65625 Z M 16.9375 0.65625 "/></g></g></g><g fill="#001639" fill-opacity="1"><g transform="translate(191.030458, 102.965415)"><g><path d="M 16.671875 0.65625 C 14.023438 0.65625 11.644531 0.0507812 9.53125 -1.15625 C 7.425781 -2.363281 5.757812 -4.039062 4.53125 -6.1875 C 3.3125 -8.332031 2.703125 -10.816406 2.703125 -13.640625 C 2.703125 -16.460938 3.320312 -18.945312 4.5625 -21.09375 C 5.8125 -23.238281 7.488281 -24.914062 9.59375 -26.125 C 11.707031 -27.34375 14.082031 -27.953125 16.71875 -27.953125 C 19.320312 -27.953125 21.675781 -27.34375 23.78125 -26.125 C 25.894531 -24.914062 27.566406 -23.238281 28.796875 -21.09375 C 30.023438 -18.945312 30.640625 -16.460938 30.640625 -13.640625 C 30.640625 -10.816406 30.023438 -8.332031 28.796875 -6.1875 C 27.566406 -4.039062 25.890625 -2.363281 23.765625 -1.15625 C 21.640625 0.0507812 19.273438 0.65625 16.671875 0.65625 Z M 16.671875 -5.453125 C 18.503906 -5.453125 20.097656 -6.140625 21.453125 -7.515625 C 22.804688 -8.890625 23.484375 -10.929688 23.484375 -13.640625 C 23.484375 -16.359375 22.804688 -18.40625 21.453125 -19.78125 C 20.097656 -21.15625 18.519531 -21.84375 16.71875 -21.84375 C 14.851562 -21.84375 13.25 -21.15625 11.90625 -19.78125 C 10.570312 -18.40625 9.90625 -16.359375 9.90625 -13.640625 C 9.90625 -10.929688 10.570312 -8.890625 11.90625 -7.515625 C 13.25 -6.140625 14.835938 -5.453125 16.671875 -5.453125 Z M 16.671875 -5.453125 "/></g></g></g><g fill="#001639" fill-opacity="1"><g transform="translate(223.151279, 102.965415)"><g><path d="M 3.578125 0 L 3.578125 -27.28125 L 9.796875 -27.28125 L 10.390625 -23.609375 C 11.273438 -24.921875 12.441406 -25.972656 13.890625 -26.765625 C 15.335938 -27.554688 17.015625 -27.953125 18.921875 -27.953125 C 23.140625 -27.953125 26.128906 -26.316406 27.890625 -23.046875 C 28.878906 -24.554688 30.207031 -25.75 31.875 -26.625 C 33.550781 -27.507812 35.378906 -27.953125 37.359375 -27.953125 C 40.910156 -27.953125 43.640625 -26.882812 45.546875 -24.75 C 47.453125 -22.625 48.40625 -19.507812 48.40625 -15.40625 L 48.40625 0 L 41.375 0 L 41.375 -14.75 C 41.375 -17.09375 40.921875 -18.882812 40.015625 -20.125 C 39.117188 -21.375 37.738281 -22 35.875 -22 C 33.96875 -22 32.4375 -21.300781 31.28125 -19.90625 C 30.125 -18.519531 29.546875 -16.578125 29.546875 -14.078125 L 29.546875 0 L 22.5 0 L 22.5 -14.75 C 22.5 -17.09375 22.039062 -18.882812 21.125 -20.125 C 20.207031 -21.375 18.796875 -22 16.890625 -22 C 15.015625 -22 13.5 -21.300781 12.34375 -19.90625 C 11.195312 -18.519531 10.625 -16.578125 10.625 -14.078125 L 10.625 0 Z M 3.578125 0 "/></g></g></g><g fill="#001639" fill-opacity="1"><g transform="translate(273.477787, 102.965415)"><g><path d="M 3.578125 12.109375 L 3.578125 -27.28125 L 9.84375 -27.28125 L 10.625 -23.375 C 11.5 -24.59375 12.660156 -25.660156 14.109375 -26.578125 C 15.554688 -27.492188 17.4375 -27.953125 19.75 -27.953125 C 22.320312 -27.953125 24.613281 -27.328125 26.625 -26.078125 C 28.644531 -24.828125 30.238281 -23.117188 31.40625 -20.953125 C 32.582031 -18.796875 33.171875 -16.34375 33.171875 -13.59375 C 33.171875 -10.84375 32.582031 -8.394531 31.40625 -6.25 C 30.238281 -4.101562 28.644531 -2.414062 26.625 -1.1875 C 24.613281 0.0390625 22.320312 0.65625 19.75 0.65625 C 17.695312 0.65625 15.898438 0.269531 14.359375 -0.5 C 12.816406 -1.269531 11.570312 -2.347656 10.625 -3.734375 L 10.625 12.109375 Z M 18.265625 -5.5 C 20.503906 -5.5 22.351562 -6.25 23.8125 -7.75 C 25.28125 -9.257812 26.015625 -11.207031 26.015625 -13.59375 C 26.015625 -15.976562 25.28125 -17.9375 23.8125 -19.46875 C 22.351562 -21.007812 20.503906 -21.78125 18.265625 -21.78125 C 15.992188 -21.78125 14.132812 -21.019531 12.6875 -19.5 C 11.238281 -17.976562 10.515625 -16.023438 10.515625 -13.640625 C 10.515625 -11.253906 11.238281 -9.300781 12.6875 -7.78125 C 14.132812 -6.257812 15.992188 -5.5 18.265625 -5.5 Z M 18.265625 -5.5 "/></g></g></g><g fill="#001639" fill-opacity="1"><g transform="translate(308.128702, 102.965415)"><g><path d="M 13.8125 0.65625 C 10.394531 0.65625 7.757812 -0.40625 5.90625 -2.53125 C 4.0625 -4.65625 3.140625 -7.773438 3.140625 -11.890625 L 3.140625 -27.28125 L 10.125 -27.28125 L 10.125 -12.546875 C 10.125 -10.191406 10.597656 -8.390625 11.546875 -7.140625 C 12.503906 -5.898438 14.007812 -5.28125 16.0625 -5.28125 C 18.007812 -5.28125 19.613281 -5.976562 20.875 -7.375 C 22.144531 -8.769531 22.78125 -10.710938 22.78125 -13.203125 L 22.78125 -27.28125 L 29.8125 -27.28125 L 29.8125 0 L 23.609375 0 L 23.046875 -4.625 C 22.203125 -3.007812 20.984375 -1.722656 19.390625 -0.765625 C 17.796875 0.179688 15.9375 0.65625 13.8125 0.65625 Z M 13.8125 0.65625 "/></g></g></g><g fill="#001639" fill-opacity="1"><g transform="translate(340.35952, 102.965415)"><g><path d="M 15.734375 0 C 12.867188 0 10.570312 -0.695312 8.84375 -2.09375 C 7.125 -3.488281 6.265625 -5.960938 6.265625 -9.515625 L 6.265625 -21.40625 L 1.59375 -21.40625 L 1.59375 -27.28125 L 6.265625 -27.28125 L 7.09375 -34.609375 L 13.3125 -34.609375 L 13.3125 -27.28125 L 20.6875 -27.28125 L 20.6875 -21.40625 L 13.3125 -21.40625 L 13.3125 -9.46875 C 13.3125 -8.144531 13.59375 -7.234375 14.15625 -6.734375 C 14.726562 -6.242188 15.710938 -6 17.109375 -6 L 20.515625 -6 L 20.515625 0 Z M 15.734375 0 "/></g></g></g><g fill="#001639" fill-opacity="1"><g transform="translate(362.304956, 102.965415)"><g><path d="M 16.828125 0.65625 C 14.078125 0.65625 11.640625 0.0703125 9.515625 -1.09375 C 7.390625 -2.269531 5.722656 -3.921875 4.515625 -6.046875 C 3.304688 -8.179688 2.703125 -10.640625 2.703125 -13.421875 C 2.703125 -16.242188 3.296875 -18.753906 4.484375 -20.953125 C 5.671875 -23.160156 7.316406 -24.878906 9.421875 -26.109375 C 11.535156 -27.335938 14.023438 -27.953125 16.890625 -27.953125 C 19.566406 -27.953125 21.929688 -27.363281 23.984375 -26.1875 C 26.035156 -25.007812 27.640625 -23.398438 28.796875 -21.359375 C 29.953125 -19.328125 30.53125 -17.066406 30.53125 -14.578125 C 30.53125 -14.171875 30.519531 -13.75 30.5 -13.3125 C 30.488281 -12.875 30.460938 -12.414062 30.421875 -11.9375 L 9.6875 -11.9375 C 9.832031 -9.8125 10.570312 -8.140625 11.90625 -6.921875 C 13.25 -5.710938 14.875 -5.109375 16.78125 -5.109375 C 18.207031 -5.109375 19.40625 -5.429688 20.375 -6.078125 C 21.351562 -6.722656 22.082031 -7.554688 22.5625 -8.578125 L 29.703125 -8.578125 C 29.191406 -6.859375 28.335938 -5.289062 27.140625 -3.875 C 25.953125 -2.46875 24.488281 -1.359375 22.75 -0.546875 C 21.007812 0.253906 19.035156 0.65625 16.828125 0.65625 Z M 16.890625 -22.21875 C 15.160156 -22.21875 13.632812 -21.734375 12.3125 -20.765625 C 11 -19.796875 10.160156 -18.320312 9.796875 -16.34375 L 23.375 -16.34375 C 23.269531 -18.132812 22.609375 -19.5625 21.390625 -20.625 C 20.179688 -21.6875 18.679688 -22.21875 16.890625 -22.21875 Z M 16.890625 -22.21875 "/></g></g></g><g fill="#001639" fill-opacity="1"><g transform="translate(393.985747, 102.965415)"><g><path d="M 3.578125 0 L 3.578125 -27.28125 L 9.84375 -27.28125 L 10.515625 -22.171875 C 11.503906 -23.929688 12.847656 -25.332031 14.546875 -26.375 C 16.253906 -27.425781 18.265625 -27.953125 20.578125 -27.953125 L 20.578125 -20.515625 L 18.59375 -20.515625 C 17.050781 -20.515625 15.675781 -20.273438 14.46875 -19.796875 C 13.257812 -19.328125 12.316406 -18.503906 11.640625 -17.328125 C 10.960938 -16.148438 10.625 -14.519531 10.625 -12.4375 L 10.625 0 Z M 3.578125 0 "/></g></g></g></svg>