<svg xmlns="http://www.w3.org/2000/svg" xmlns:xlink="http://www.w3.org/1999/xlink" width="606" zoomAndPan="magnify" viewBox="0 0 454.5 129.750003" height="173" preserveAspectRatio="xMidYMid meet" version="1.0"><defs><g/><clipPath id="8014d992de"><path d="M 0.1875 0 L 453.8125 0 L 453.8125 129.5 L 0.1875 129.5 Z M 0.1875 0 " clip-rule="nonzero"/></clipPath><clipPath id="629c49fed0"><path d="M 7.011719 12.742188 L 115.871094 12.742188 L 115.871094 121.597656 L 7.011719 121.597656 Z M 7.011719 12.742188 " clip-rule="nonzero"/></clipPath><clipPath id="59a834d800"><path d="M 0.1875 0 L 120 0 L 120 126 L 0.1875 126 Z M 0.1875 0 " clip-rule="nonzero"/></clipPath><clipPath id="71104479a3"><path d="M -54.382812 65.773438 L 59.371094 -47.980469 L 120.328125 12.976562 L 6.578125 126.730469 Z M -54.382812 65.773438 " clip-rule="nonzero"/></clipPath><clipPath id="db7caafd1a"><path d="M -54.382812 65.773438 L 59.371094 -47.980469 L 120.328125 12.976562 L 6.578125 126.730469 Z M -54.382812 65.773438 " clip-rule="nonzero"/></clipPath></defs><g clip-path="url(#8014d992de)"><path fill="#ffffff" d="M 0.1875 0 L 453.8125 0 L 453.8125 129.5 L 0.1875 129.5 Z M 0.1875 0 " fill-opacity="1" fill-rule="nonzero"/><path fill="#ffffff" d="M 0.1875 0 L 453.8125 0 L 453.8125 129.5 L 0.1875 129.5 Z M 0.1875 0 " fill-opacity="1" fill-rule="nonzero"/></g><g clip-path="url(#629c49fed0)"><path fill="#e94b27" d="M 7.011719 12.742188 L 115.871094 12.742188 L 115.871094 121.597656 L 7.011719 121.597656 Z M 7.011719 12.742188 " fill-opacity="1" fill-rule="nonzero"/></g><g clip-path="url(#59a834d800)"><g clip-path="url(#71104479a3)"><g clip-path="url(#db7caafd1a)"><path fill="#ffffff" d="M 114.265625 8.242188 L 75.929688 45.191406 L 103.445312 -0.355469 C 103.5 -0.4375 103.511719 -0.539062 103.488281 -0.632812 C 103.464844 -0.726562 103.40625 -0.808594 103.324219 -0.859375 L 98.277344 -3.90625 C 98.101562 -4.007812 97.867188 -3.957031 97.773438 -3.78125 L 69.800781 41.75 L 84.402344 -9.601562 C 84.457031 -9.796875 84.34375 -10 84.148438 -10.054688 L 78.476562 -11.683594 C 78.277344 -11.738281 78.078125 -11.625 78.019531 -11.4375 L 62.414062 40.082031 L 61.695312 -13.566406 C 61.695312 -13.769531 61.527344 -13.929688 61.324219 -13.929688 L 55.421875 -13.867188 C 55.214844 -13.867188 55.054688 -13.695312 55.054688 -13.496094 L 55.570312 39.757812 L 41.386719 -11.554688 C 41.363281 -11.648438 41.300781 -11.726562 41.214844 -11.777344 C 41.128906 -11.824219 41.027344 -11.835938 40.933594 -11.808594 L 35.21875 -10.226562 C 35.019531 -10.171875 34.910156 -9.972656 34.960938 -9.773438 L 48.847656 41.820312 L 21.550781 -4.03125 C 21.449219 -4.203125 21.222656 -4.261719 21.046875 -4.160156 L 15.957031 -1.15625 C 15.871094 -1.105469 15.8125 -1.023438 15.789062 -0.929688 C 15.761719 -0.832031 15.777344 -0.734375 15.828125 -0.648438 L 42.992188 45.113281 L 5.246094 7.644531 C 5.101562 7.5 4.867188 7.5 4.722656 7.644531 L 0.550781 11.816406 C 0.40625 11.957031 0.40625 12.191406 0.550781 12.335938 L 38.097656 49.882812 L -7.53125 22.710938 C -7.613281 22.660156 -7.714844 22.644531 -7.808594 22.667969 C -7.90625 22.691406 -7.992188 22.753906 -8.035156 22.839844 L -11.039062 27.929688 C -11.140625 28.105469 -11.085938 28.328125 -10.914062 28.433594 L 34.9375 55.730469 L -16.65625 41.839844 C -16.855469 41.789062 -17.054688 41.902344 -17.105469 42.101562 L -18.691406 47.816406 C -18.71875 47.910156 -18.707031 48.011719 -18.660156 48.097656 C -18.609375 48.183594 -18.527344 48.246094 -18.4375 48.269531 L 32.875 62.453125 L -20.378906 61.9375 C -20.582031 61.941406 -20.75 62.097656 -20.75 62.304688 L -20.8125 68.207031 C -20.8125 68.410156 -20.652344 68.578125 -20.449219 68.578125 L 33.203125 69.296875 L -18.316406 84.902344 C -18.507812 84.964844 -18.621094 85.164062 -18.566406 85.355469 L -16.9375 91.03125 C -16.882812 91.226562 -16.679688 91.339844 -16.484375 91.285156 L 34.867188 76.683594 L -10.664062 104.65625 C -10.832031 104.738281 -10.890625 104.984375 -10.785156 105.15625 L -7.742188 110.207031 C -7.695312 110.289062 -7.609375 110.351562 -7.515625 110.375 C -7.421875 110.398438 -7.320312 110.382812 -7.238281 110.332031 L 38.308594 82.8125 L 1.363281 121.148438 C 1.21875 121.296875 1.222656 121.527344 1.371094 121.671875 L 5.605469 125.78125 C 5.75 125.921875 5.980469 125.917969 6.121094 125.777344 L 118.894531 13.003906 C 119.035156 12.863281 119.039062 12.632812 118.898438 12.488281 L 114.789062 8.253906 C 114.644531 8.105469 114.414062 8.101562 114.265625 8.242188 Z M 114.265625 8.242188 " fill-opacity="1" fill-rule="nonzero"/></g></g></g><g fill="#001639" fill-opacity="1"><g transform="translate(125.304934, 54.727008)"><g><path d="M 16.421875 0.734375 C 13.742188 0.734375 11.390625 0.296875 9.359375 -0.578125 C 7.335938 -1.453125 5.71875 -2.660156 4.5 -4.203125 C 3.28125 -5.742188 2.550781 -7.523438 2.3125 -9.546875 L 10.15625 -9.546875 C 10.40625 -8.367188 11.066406 -7.363281 12.140625 -6.53125 C 13.210938 -5.707031 14.601562 -5.296875 16.3125 -5.296875 C 18.007812 -5.296875 19.253906 -5.640625 20.046875 -6.328125 C 20.835938 -7.015625 21.234375 -7.804688 21.234375 -8.703125 C 21.234375 -9.992188 20.664062 -10.875 19.53125 -11.34375 C 18.394531 -11.8125 16.8125 -12.269531 14.78125 -12.71875 C 13.488281 -13 12.171875 -13.34375 10.828125 -13.75 C 9.492188 -14.15625 8.265625 -14.671875 7.140625 -15.296875 C 6.023438 -15.929688 5.125 -16.742188 4.4375 -17.734375 C 3.75 -18.734375 3.40625 -19.960938 3.40625 -21.421875 C 3.40625 -24.097656 4.46875 -26.347656 6.59375 -28.171875 C 8.726562 -29.992188 11.722656 -30.90625 15.578125 -30.90625 C 19.148438 -30.90625 22 -30.070312 24.125 -28.40625 C 26.25 -26.75 27.515625 -24.457031 27.921875 -21.53125 L 20.5625 -21.53125 C 20.113281 -23.769531 18.429688 -24.890625 15.515625 -24.890625 C 14.054688 -24.890625 12.929688 -24.601562 12.140625 -24.03125 C 11.347656 -23.46875 10.953125 -22.757812 10.953125 -21.90625 C 10.953125 -21.007812 11.539062 -20.296875 12.71875 -19.765625 C 13.894531 -19.242188 15.457031 -18.757812 17.40625 -18.3125 C 19.507812 -17.820312 21.441406 -17.28125 23.203125 -16.6875 C 24.972656 -16.101562 26.382812 -15.234375 27.4375 -14.078125 C 28.488281 -12.921875 29.015625 -11.269531 29.015625 -9.125 C 29.054688 -7.257812 28.570312 -5.578125 27.5625 -4.078125 C 26.550781 -2.578125 25.09375 -1.398438 23.1875 -0.546875 C 21.28125 0.304688 19.023438 0.734375 16.421875 0.734375 Z M 16.421875 0.734375 "/></g></g></g><g fill="#001639" fill-opacity="1"><g transform="translate(155.899788, 54.727008)"><g><path d="M 15.265625 0.734375 C 11.492188 0.734375 8.582031 -0.441406 6.53125 -2.796875 C 4.488281 -5.148438 3.46875 -8.597656 3.46875 -13.140625 L 3.46875 -30.171875 L 11.1875 -30.171875 L 11.1875 -13.875 C 11.1875 -11.28125 11.710938 -9.289062 12.765625 -7.90625 C 13.828125 -6.53125 15.492188 -5.84375 17.765625 -5.84375 C 19.910156 -5.84375 21.679688 -6.613281 23.078125 -8.15625 C 24.484375 -9.695312 25.1875 -11.847656 25.1875 -14.609375 L 25.1875 -30.171875 L 32.984375 -30.171875 L 32.984375 0 L 26.109375 0 L 25.5 -5.109375 C 24.5625 -3.328125 23.207031 -1.90625 21.4375 -0.84375 C 19.675781 0.207031 17.617188 0.734375 15.265625 0.734375 Z M 15.265625 0.734375 "/></g></g></g><g fill="#001639" fill-opacity="1"><g transform="translate(191.543174, 54.727008)"><g><path d="M 3.953125 0 L 3.953125 -30.171875 L 10.828125 -30.171875 L 11.4375 -25.0625 C 12.375 -26.851562 13.722656 -28.273438 15.484375 -29.328125 C 17.242188 -30.378906 19.320312 -30.90625 21.71875 -30.90625 C 25.445312 -30.90625 28.347656 -29.726562 30.421875 -27.375 C 32.492188 -25.019531 33.53125 -21.570312 33.53125 -17.03125 L 33.53125 0 L 25.734375 0 L 25.734375 -16.3125 C 25.734375 -18.90625 25.207031 -20.890625 24.15625 -22.265625 C 23.101562 -23.648438 21.460938 -24.34375 19.234375 -24.34375 C 17.035156 -24.34375 15.238281 -23.570312 13.84375 -22.03125 C 12.445312 -20.488281 11.75 -18.335938 11.75 -15.578125 L 11.75 0 Z M 3.953125 0 "/></g></g></g><g fill="#001639" fill-opacity="1"><g transform="translate(227.186565, 54.727008)"><g><path d="M 16.421875 0.734375 C 13.742188 0.734375 11.390625 0.296875 9.359375 -0.578125 C 7.335938 -1.453125 5.71875 -2.660156 4.5 -4.203125 C 3.28125 -5.742188 2.550781 -7.523438 2.3125 -9.546875 L 10.15625 -9.546875 C 10.40625 -8.367188 11.066406 -7.363281 12.140625 -6.53125 C 13.210938 -5.707031 14.601562 -5.296875 16.3125 -5.296875 C 18.007812 -5.296875 19.253906 -5.640625 20.046875 -6.328125 C 20.835938 -7.015625 21.234375 -7.804688 21.234375 -8.703125 C 21.234375 -9.992188 20.664062 -10.875 19.53125 -11.34375 C 18.394531 -11.8125 16.8125 -12.269531 14.78125 -12.71875 C 13.488281 -13 12.171875 -13.34375 10.828125 -13.75 C 9.492188 -14.15625 8.265625 -14.671875 7.140625 -15.296875 C 6.023438 -15.929688 5.125 -16.742188 4.4375 -17.734375 C 3.75 -18.734375 3.40625 -19.960938 3.40625 -21.421875 C 3.40625 -24.097656 4.46875 -26.347656 6.59375 -28.171875 C 8.726562 -29.992188 11.722656 -30.90625 15.578125 -30.90625 C 19.148438 -30.90625 22 -30.070312 24.125 -28.40625 C 26.25 -26.75 27.515625 -24.457031 27.921875 -21.53125 L 20.5625 -21.53125 C 20.113281 -23.769531 18.429688 -24.890625 15.515625 -24.890625 C 14.054688 -24.890625 12.929688 -24.601562 12.140625 -24.03125 C 11.347656 -23.46875 10.953125 -22.757812 10.953125 -21.90625 C 10.953125 -21.007812 11.539062 -20.296875 12.71875 -19.765625 C 13.894531 -19.242188 15.457031 -18.757812 17.40625 -18.3125 C 19.507812 -17.820312 21.441406 -17.28125 23.203125 -16.6875 C 24.972656 -16.101562 26.382812 -15.234375 27.4375 -14.078125 C 28.488281 -12.921875 29.015625 -11.269531 29.015625 -9.125 C 29.054688 -7.257812 28.570312 -5.578125 27.5625 -4.078125 C 26.550781 -2.578125 25.09375 -1.398438 23.1875 -0.546875 C 21.28125 0.304688 19.023438 0.734375 16.421875 0.734375 Z M 16.421875 0.734375 "/></g></g></g><g fill="#001639" fill-opacity="1"><g transform="translate(257.781413, 54.727008)"><g><path d="M 18.734375 0.734375 C 15.648438 0.734375 12.929688 0.0664062 10.578125 -1.265625 C 8.234375 -2.609375 6.378906 -4.476562 5.015625 -6.875 C 3.660156 -9.269531 2.984375 -12.007812 2.984375 -15.09375 C 2.984375 -18.175781 3.660156 -20.910156 5.015625 -23.296875 C 6.378906 -25.691406 8.234375 -27.554688 10.578125 -28.890625 C 12.929688 -30.234375 15.648438 -30.90625 18.734375 -30.90625 C 22.585938 -30.90625 25.832031 -29.898438 28.46875 -27.890625 C 31.113281 -25.890625 32.800781 -23.125 33.53125 -19.59375 L 25.3125 -19.59375 C 24.90625 -21.050781 24.101562 -22.195312 22.90625 -23.03125 C 21.707031 -23.863281 20.296875 -24.28125 18.671875 -24.28125 C 16.523438 -24.28125 14.703125 -23.46875 13.203125 -21.84375 C 11.703125 -20.21875 10.953125 -17.96875 10.953125 -15.09375 C 10.953125 -12.207031 11.703125 -9.953125 13.203125 -8.328125 C 14.703125 -6.710938 16.523438 -5.90625 18.671875 -5.90625 C 20.296875 -5.90625 21.707031 -6.304688 22.90625 -7.109375 C 24.101562 -7.921875 24.90625 -9.082031 25.3125 -10.59375 L 33.53125 -10.59375 C 32.800781 -7.175781 31.113281 -4.429688 28.46875 -2.359375 C 25.832031 -0.296875 22.585938 0.734375 18.734375 0.734375 Z M 18.734375 0.734375 "/></g></g></g><g fill="#001639" fill-opacity="1"><g transform="translate(292.9382, 54.727008)"><g><path d="M 14.359375 0.734375 C 11.765625 0.734375 9.632812 0.316406 7.96875 -0.515625 C 6.300781 -1.347656 5.0625 -2.453125 4.25 -3.828125 C 3.445312 -5.210938 3.046875 -6.734375 3.046875 -8.390625 C 3.046875 -11.191406 4.140625 -13.460938 6.328125 -15.203125 C 8.515625 -16.953125 11.800781 -17.828125 16.1875 -17.828125 L 23.84375 -17.828125 L 23.84375 -18.5625 C 23.84375 -20.625 23.253906 -22.140625 22.078125 -23.109375 C 20.910156 -24.085938 19.453125 -24.578125 17.703125 -24.578125 C 16.117188 -24.578125 14.738281 -24.203125 13.5625 -23.453125 C 12.382812 -22.703125 11.65625 -21.597656 11.375 -20.140625 L 3.765625 -20.140625 C 3.972656 -22.328125 4.710938 -24.234375 5.984375 -25.859375 C 7.265625 -27.484375 8.921875 -28.726562 10.953125 -29.59375 C 12.984375 -30.46875 15.253906 -30.90625 17.765625 -30.90625 C 22.066406 -30.90625 25.453125 -29.828125 27.921875 -27.671875 C 30.398438 -25.523438 31.640625 -22.488281 31.640625 -18.5625 L 31.640625 0 L 25 0 L 24.28125 -4.875 C 23.382812 -3.25 22.132812 -1.90625 20.53125 -0.84375 C 18.925781 0.207031 16.867188 0.734375 14.359375 0.734375 Z M 16.125 -5.359375 C 18.351562 -5.359375 20.085938 -6.085938 21.328125 -7.546875 C 22.566406 -9.003906 23.347656 -10.804688 23.671875 -12.953125 L 17.03125 -12.953125 C 14.96875 -12.953125 13.488281 -12.578125 12.59375 -11.828125 C 11.695312 -11.078125 11.25 -10.15625 11.25 -9.0625 C 11.25 -7.882812 11.695312 -6.972656 12.59375 -6.328125 C 13.488281 -5.679688 14.664062 -5.359375 16.125 -5.359375 Z M 16.125 -5.359375 "/></g></g></g><g fill="#001639" fill-opacity="1"><g transform="translate(326.695995, 54.727008)"><g><path d="M 3.953125 0 L 3.953125 -43.8125 L 11.75 -43.8125 L 11.75 0 Z M 3.953125 0 "/></g></g></g><g fill="#001639" fill-opacity="1"><g transform="translate(341.111239, 54.727008)"><g><path d="M 18.625 0.734375 C 15.582031 0.734375 12.882812 0.0859375 10.53125 -1.203125 C 8.175781 -2.503906 6.328125 -4.332031 4.984375 -6.6875 C 3.648438 -9.039062 2.984375 -11.757812 2.984375 -14.84375 C 2.984375 -17.96875 3.640625 -20.742188 4.953125 -23.171875 C 6.273438 -25.609375 8.101562 -27.503906 10.4375 -28.859375 C 12.769531 -30.222656 15.515625 -30.90625 18.671875 -30.90625 C 21.640625 -30.90625 24.257812 -30.253906 26.53125 -28.953125 C 28.800781 -27.660156 30.570312 -25.890625 31.84375 -23.640625 C 33.125 -21.390625 33.765625 -18.882812 33.765625 -16.125 C 33.765625 -15.675781 33.753906 -15.207031 33.734375 -14.71875 C 33.710938 -14.238281 33.679688 -13.734375 33.640625 -13.203125 L 10.703125 -13.203125 C 10.867188 -10.847656 11.691406 -9 13.171875 -7.65625 C 14.648438 -6.320312 16.445312 -5.65625 18.5625 -5.65625 C 20.144531 -5.65625 21.472656 -6.007812 22.546875 -6.71875 C 23.617188 -7.425781 24.421875 -8.347656 24.953125 -9.484375 L 32.859375 -9.484375 C 32.285156 -7.578125 31.335938 -5.84375 30.015625 -4.28125 C 28.703125 -2.726562 27.082031 -1.503906 25.15625 -0.609375 C 23.226562 0.285156 21.050781 0.734375 18.625 0.734375 Z M 18.671875 -24.578125 C 16.765625 -24.578125 15.082031 -24.039062 13.625 -22.96875 C 12.164062 -21.894531 11.234375 -20.265625 10.828125 -18.078125 L 25.859375 -18.078125 C 25.734375 -20.054688 25 -21.632812 23.65625 -22.8125 C 22.320312 -23.988281 20.660156 -24.578125 18.671875 -24.578125 Z M 18.671875 -24.578125 "/></g></g></g><g fill="#001639" fill-opacity="1"><g transform="translate(376.146356, 54.727008)"><g><path d="M 15.265625 0.734375 C 11.492188 0.734375 8.582031 -0.441406 6.53125 -2.796875 C 4.488281 -5.148438 3.46875 -8.597656 3.46875 -13.140625 L 3.46875 -30.171875 L 11.1875 -30.171875 L 11.1875 -13.875 C 11.1875 -11.28125 11.710938 -9.289062 12.765625 -7.90625 C 13.828125 -6.53125 15.492188 -5.84375 17.765625 -5.84375 C 19.910156 -5.84375 21.679688 -6.613281 23.078125 -8.15625 C 24.484375 -9.695312 25.1875 -11.847656 25.1875 -14.609375 L 25.1875 -30.171875 L 32.984375 -30.171875 L 32.984375 0 L 26.109375 0 L 25.5 -5.109375 C 24.5625 -3.328125 23.207031 -1.90625 21.4375 -0.84375 C 19.675781 0.207031 17.617188 0.734375 15.265625 0.734375 Z M 15.265625 0.734375 "/></g></g></g><g fill="#001639" fill-opacity="1"><g transform="translate(411.789737, 54.727008)"><g><path d="M 3.953125 13.390625 L 3.953125 -30.171875 L 10.890625 -30.171875 L 11.75 -25.859375 C 12.71875 -27.191406 14.003906 -28.363281 15.609375 -29.375 C 17.210938 -30.394531 19.289062 -30.90625 21.84375 -30.90625 C 24.6875 -30.90625 27.222656 -30.210938 29.453125 -28.828125 C 31.679688 -27.453125 33.441406 -25.566406 34.734375 -23.171875 C 36.035156 -20.785156 36.6875 -18.070312 36.6875 -15.03125 C 36.6875 -11.988281 36.035156 -9.28125 34.734375 -6.90625 C 33.441406 -4.53125 31.679688 -2.660156 29.453125 -1.296875 C 27.222656 0.0546875 24.6875 0.734375 21.84375 0.734375 C 19.570312 0.734375 17.582031 0.304688 15.875 -0.546875 C 14.175781 -1.398438 12.800781 -2.597656 11.75 -4.140625 L 11.75 13.390625 Z M 20.203125 -6.078125 C 22.671875 -6.078125 24.71875 -6.910156 26.34375 -8.578125 C 27.96875 -10.242188 28.78125 -12.394531 28.78125 -15.03125 C 28.78125 -17.664062 27.96875 -19.832031 26.34375 -21.53125 C 24.71875 -23.238281 22.671875 -24.09375 20.203125 -24.09375 C 17.679688 -24.09375 15.617188 -23.25 14.015625 -21.5625 C 12.421875 -19.882812 11.625 -17.726562 11.625 -15.09375 C 11.625 -12.457031 12.421875 -10.296875 14.015625 -8.609375 C 15.617188 -6.921875 17.679688 -6.078125 20.203125 -6.078125 Z M 20.203125 -6.078125 "/></g></g></g><g fill="#001639" fill-opacity="1"><g transform="translate(125.304934, 104.112563)"><g><path d="M 18.734375 0.734375 C 15.648438 0.734375 12.929688 0.0664062 10.578125 -1.265625 C 8.234375 -2.609375 6.378906 -4.476562 5.015625 -6.875 C 3.660156 -9.269531 2.984375 -12.007812 2.984375 -15.09375 C 2.984375 -18.175781 3.660156 -20.910156 5.015625 -23.296875 C 6.378906 -25.691406 8.234375 -27.554688 10.578125 -28.890625 C 12.929688 -30.234375 15.648438 -30.90625 18.734375 -30.90625 C 22.585938 -30.90625 25.832031 -29.898438 28.46875 -27.890625 C 31.113281 -25.890625 32.800781 -23.125 33.53125 -19.59375 L 25.3125 -19.59375 C 24.90625 -21.050781 24.101562 -22.195312 22.90625 -23.03125 C 21.707031 -23.863281 20.296875 -24.28125 18.671875 -24.28125 C 16.523438 -24.28125 14.703125 -23.46875 13.203125 -21.84375 C 11.703125 -20.21875 10.953125 -17.96875 10.953125 -15.09375 C 10.953125 -12.207031 11.703125 -9.953125 13.203125 -8.328125 C 14.703125 -6.710938 16.523438 -5.90625 18.671875 -5.90625 C 20.296875 -5.90625 21.707031 -6.304688 22.90625 -7.109375 C 24.101562 -7.921875 24.90625 -9.082031 25.3125 -10.59375 L 33.53125 -10.59375 C 32.800781 -7.175781 31.113281 -4.429688 28.46875 -2.359375 C 25.832031 -0.296875 22.585938 0.734375 18.734375 0.734375 Z M 18.734375 0.734375 "/></g></g></g><g fill="#001639" fill-opacity="1"><g transform="translate(160.461726, 104.112563)"><g><path d="M 18.4375 0.734375 C 15.519531 0.734375 12.894531 0.0664062 10.5625 -1.265625 C 8.226562 -2.609375 6.378906 -4.46875 5.015625 -6.84375 C 3.660156 -9.21875 2.984375 -11.96875 2.984375 -15.09375 C 2.984375 -18.21875 3.671875 -20.960938 5.046875 -23.328125 C 6.429688 -25.703125 8.285156 -27.554688 10.609375 -28.890625 C 12.941406 -30.234375 15.570312 -30.90625 18.5 -30.90625 C 21.375 -30.90625 23.976562 -30.234375 26.3125 -28.890625 C 28.644531 -27.554688 30.488281 -25.703125 31.84375 -23.328125 C 33.207031 -20.960938 33.890625 -18.21875 33.890625 -15.09375 C 33.890625 -11.96875 33.207031 -9.21875 31.84375 -6.84375 C 30.488281 -4.46875 28.632812 -2.609375 26.28125 -1.265625 C 23.925781 0.0664062 21.3125 0.734375 18.4375 0.734375 Z M 18.4375 -6.03125 C 20.46875 -6.03125 22.234375 -6.789062 23.734375 -8.3125 C 25.234375 -9.832031 25.984375 -12.09375 25.984375 -15.09375 C 25.984375 -18.09375 25.234375 -20.351562 23.734375 -21.875 C 22.234375 -23.394531 20.488281 -24.15625 18.5 -24.15625 C 16.425781 -24.15625 14.648438 -23.394531 13.171875 -21.875 C 11.691406 -20.351562 10.953125 -18.09375 10.953125 -15.09375 C 10.953125 -12.09375 11.691406 -9.832031 13.171875 -8.3125 C 14.648438 -6.789062 16.40625 -6.03125 18.4375 -6.03125 Z M 18.4375 -6.03125 "/></g></g></g><g fill="#001639" fill-opacity="1"><g transform="translate(195.983464, 104.112563)"><g><path d="M 3.953125 0 L 3.953125 -30.171875 L 10.828125 -30.171875 L 11.5 -26.109375 C 12.46875 -27.566406 13.753906 -28.726562 15.359375 -29.59375 C 16.960938 -30.46875 18.820312 -30.90625 20.9375 -30.90625 C 25.59375 -30.90625 28.894531 -29.101562 30.84375 -25.5 C 31.9375 -27.15625 33.40625 -28.46875 35.25 -29.4375 C 37.101562 -30.414062 39.125 -30.90625 41.3125 -30.90625 C 45.25 -30.90625 48.269531 -29.726562 50.375 -27.375 C 52.488281 -25.019531 53.546875 -21.570312 53.546875 -17.03125 L 53.546875 0 L 45.75 0 L 45.75 -16.3125 C 45.75 -18.90625 45.25 -20.890625 44.25 -22.265625 C 43.257812 -23.648438 41.734375 -24.34375 39.671875 -24.34375 C 37.554688 -24.34375 35.859375 -23.570312 34.578125 -22.03125 C 33.304688 -20.488281 32.671875 -18.335938 32.671875 -15.578125 L 32.671875 0 L 24.890625 0 L 24.890625 -16.3125 C 24.890625 -18.90625 24.378906 -20.890625 23.359375 -22.265625 C 22.347656 -23.648438 20.785156 -24.34375 18.671875 -24.34375 C 16.609375 -24.34375 14.9375 -23.570312 13.65625 -22.03125 C 12.382812 -20.488281 11.75 -18.335938 11.75 -15.578125 L 11.75 0 Z M 3.953125 0 "/></g></g></g><g fill="#001639" fill-opacity="1"><g transform="translate(251.638486, 104.112563)"><g><path d="M 3.953125 13.390625 L 3.953125 -30.171875 L 10.890625 -30.171875 L 11.75 -25.859375 C 12.71875 -27.191406 14.003906 -28.363281 15.609375 -29.375 C 17.210938 -30.394531 19.289062 -30.90625 21.84375 -30.90625 C 24.6875 -30.90625 27.222656 -30.210938 29.453125 -28.828125 C 31.679688 -27.453125 33.441406 -25.566406 34.734375 -23.171875 C 36.035156 -20.785156 36.6875 -18.070312 36.6875 -15.03125 C 36.6875 -11.988281 36.035156 -9.28125 34.734375 -6.90625 C 33.441406 -4.53125 31.679688 -2.660156 29.453125 -1.296875 C 27.222656 0.0546875 24.6875 0.734375 21.84375 0.734375 C 19.570312 0.734375 17.582031 0.304688 15.875 -0.546875 C 14.175781 -1.398438 12.800781 -2.597656 11.75 -4.140625 L 11.75 13.390625 Z M 20.203125 -6.078125 C 22.671875 -6.078125 24.71875 -6.910156 26.34375 -8.578125 C 27.96875 -10.242188 28.78125 -12.394531 28.78125 -15.03125 C 28.78125 -17.664062 27.96875 -19.832031 26.34375 -21.53125 C 24.71875 -23.238281 22.671875 -24.09375 20.203125 -24.09375 C 17.679688 -24.09375 15.617188 -23.25 14.015625 -21.5625 C 12.421875 -19.882812 11.625 -17.726562 11.625 -15.09375 C 11.625 -12.457031 12.421875 -10.296875 14.015625 -8.609375 C 15.617188 -6.921875 17.679688 -6.078125 20.203125 -6.078125 Z M 20.203125 -6.078125 "/></g></g></g><g fill="#001639" fill-opacity="1"><g transform="translate(289.9582, 104.112563)"><g><path d="M 15.265625 0.734375 C 11.492188 0.734375 8.582031 -0.441406 6.53125 -2.796875 C 4.488281 -5.148438 3.46875 -8.597656 3.46875 -13.140625 L 3.46875 -30.171875 L 11.1875 -30.171875 L 11.1875 -13.875 C 11.1875 -11.28125 11.710938 -9.289062 12.765625 -7.90625 C 13.828125 -6.53125 15.492188 -5.84375 17.765625 -5.84375 C 19.910156 -5.84375 21.679688 -6.613281 23.078125 -8.15625 C 24.484375 -9.695312 25.1875 -11.847656 25.1875 -14.609375 L 25.1875 -30.171875 L 32.984375 -30.171875 L 32.984375 0 L 26.109375 0 L 25.5 -5.109375 C 24.5625 -3.328125 23.207031 -1.90625 21.4375 -0.84375 C 19.675781 0.207031 17.617188 0.734375 15.265625 0.734375 Z M 15.265625 0.734375 "/></g></g></g><g fill="#001639" fill-opacity="1"><g transform="translate(325.601581, 104.112563)"><g><path d="M 17.40625 0 C 14.238281 0 11.703125 -0.769531 9.796875 -2.3125 C 7.890625 -3.851562 6.9375 -6.59375 6.9375 -10.53125 L 6.9375 -23.671875 L 1.765625 -23.671875 L 1.765625 -30.171875 L 6.9375 -30.171875 L 7.84375 -38.265625 L 14.71875 -38.265625 L 14.71875 -30.171875 L 22.875 -30.171875 L 22.875 -23.671875 L 14.71875 -23.671875 L 14.71875 -10.46875 C 14.71875 -9.007812 15.03125 -8.003906 15.65625 -7.453125 C 16.289062 -6.898438 17.378906 -6.625 18.921875 -6.625 L 22.6875 -6.625 L 22.6875 0 Z M 17.40625 0 "/></g></g></g><g fill="#001639" fill-opacity="1"><g transform="translate(349.870574, 104.112563)"><g><path d="M 18.625 0.734375 C 15.582031 0.734375 12.882812 0.0859375 10.53125 -1.203125 C 8.175781 -2.503906 6.328125 -4.332031 4.984375 -6.6875 C 3.648438 -9.039062 2.984375 -11.757812 2.984375 -14.84375 C 2.984375 -17.96875 3.640625 -20.742188 4.953125 -23.171875 C 6.273438 -25.609375 8.101562 -27.503906 10.4375 -28.859375 C 12.769531 -30.222656 15.515625 -30.90625 18.671875 -30.90625 C 21.640625 -30.90625 24.257812 -30.253906 26.53125 -28.953125 C 28.800781 -27.660156 30.570312 -25.890625 31.84375 -23.640625 C 33.125 -21.390625 33.765625 -18.882812 33.765625 -16.125 C 33.765625 -15.675781 33.753906 -15.207031 33.734375 -14.71875 C 33.710938 -14.238281 33.679688 -13.734375 33.640625 -13.203125 L 10.703125 -13.203125 C 10.867188 -10.847656 11.691406 -9 13.171875 -7.65625 C 14.648438 -6.320312 16.445312 -5.65625 18.5625 -5.65625 C 20.144531 -5.65625 21.472656 -6.007812 22.546875 -6.71875 C 23.617188 -7.425781 24.421875 -8.347656 24.953125 -9.484375 L 32.859375 -9.484375 C 32.285156 -7.578125 31.335938 -5.84375 30.015625 -4.28125 C 28.703125 -2.726562 27.082031 -1.503906 25.15625 -0.609375 C 23.226562 0.285156 21.050781 0.734375 18.625 0.734375 Z M 18.671875 -24.578125 C 16.765625 -24.578125 15.082031 -24.039062 13.625 -22.96875 C 12.164062 -21.894531 11.234375 -20.265625 10.828125 -18.078125 L 25.859375 -18.078125 C 25.734375 -20.054688 25 -21.632812 23.65625 -22.8125 C 22.320312 -23.988281 20.660156 -24.578125 18.671875 -24.578125 Z M 18.671875 -24.578125 "/></g></g></g><g fill="#001639" fill-opacity="1"><g transform="translate(384.905691, 104.112563)"><g><path d="M 3.953125 0 L 3.953125 -30.171875 L 10.890625 -30.171875 L 11.625 -24.515625 C 12.71875 -26.460938 14.207031 -28.015625 16.09375 -29.171875 C 17.976562 -30.328125 20.195312 -30.90625 22.75 -30.90625 L 22.75 -22.6875 L 20.5625 -22.6875 C 18.863281 -22.6875 17.34375 -22.421875 16 -21.890625 C 14.664062 -21.367188 13.625 -20.457031 12.875 -19.15625 C 12.125 -17.863281 11.75 -16.0625 11.75 -13.75 L 11.75 0 Z M 3.953125 0 "/></g></g></g></svg>