<svg version="1.2" xmlns="http://www.w3.org/2000/svg" viewBox="0 0 456 130" width="456" height="130"><defs><clipPath clipPathUnits="userSpaceOnUse" id="cp1"><path d="m2.47 10.22h113.91v113.91h-113.91z"/></clipPath><clipPath clipPathUnits="userSpaceOnUse" id="cp2"><path d="m1.19 0h118.81v129h-118.81z"/></clipPath><clipPath clipPathUnits="userSpaceOnUse" id="cp3"><path d="m-61.77 65.71l119.03-119.03 63.78 63.79-119.03 119.03z"/></clipPath><clipPath clipPathUnits="userSpaceOnUse" id="cp4"><path d="m-61.77 65.71l119.03-119.03 63.78 63.79-119.03 119.03z"/></clipPath></defs><style>.a{fill:#e94b27}.b{fill:#fff}.c{fill:#001639}</style><g clip-path="url(#cp1)"><path class="a" d="m2.5 10.2h113.9v113.9h-113.9z"/></g><g clip-path="url(#cp2)"><g clip-path="url(#cp3)"><g clip-path="url(#cp4)"><path class="b" d="m114.7 5.5l-40.1 38.7 28.8-47.7q0.1-0.1 0-0.3 0-0.1-0.2-0.2l-5.2-3.2c-0.2-0.1-0.5 0-0.6 0.1l-29.2 47.7 15.2-53.8c0.1-0.2 0-0.4-0.2-0.4l-6-1.7c-0.2-0.1-0.4 0-0.4 0.2l-16.4 53.9-0.7-56.1c0-0.2-0.2-0.4-0.4-0.4l-6.2 0.1c-0.2 0-0.4 0.2-0.4 0.4l0.6 55.7-14.9-53.7q0-0.1-0.1-0.2-0.2-0.1-0.3-0.1l-6 1.7c-0.2 0-0.3 0.3-0.3 0.5l14.5 53.9-28.5-47.9c-0.1-0.2-0.4-0.3-0.5-0.2l-5.4 3.2q-0.1 0.1-0.1 0.2-0.1 0.2 0 0.3l28.4 47.9-39.5-39.2c-0.1-0.2-0.4-0.2-0.5 0l-4.4 4.4c-0.1 0.1-0.1 0.3 0 0.5l39.3 39.3-47.7-28.4q-0.2-0.1-0.3-0.1-0.2 0.1-0.3 0.2l-3.1 5.3c-0.1 0.2-0.1 0.4 0.1 0.5l48 28.6-54-14.5c-0.2-0.1-0.4 0-0.5 0.2l-1.6 6q-0.1 0.2 0 0.3 0.1 0.2 0.2 0.2l53.7 14.8-55.7-0.5c-0.2 0-0.4 0.2-0.4 0.4v6.2c0 0.2 0.1 0.3 0.3 0.4l56.2 0.7-53.9 16.3c-0.2 0.1-0.4 0.3-0.3 0.5l1.7 5.9c0.1 0.2 0.3 0.4 0.5 0.3l53.7-15.3-47.6 29.3c-0.2 0.1-0.3 0.3-0.2 0.5l3.2 5.3q0.1 0.1 0.3 0.2 0.1 0 0.3-0.1l47.6-28.8-38.6 40.2c-0.2 0.1-0.2 0.4 0 0.5l4.4 4.3c0.1 0.2 0.4 0.2 0.5 0l118-118c0.2-0.1 0.2-0.4 0-0.5l-4.3-4.5c-0.1-0.1-0.3-0.1-0.5 0z"/></g></g></g><path class="c" d="m145.1 56.9q-4 0-7-1.3-3.1-1.3-4.9-3.7-1.8-2.3-2.2-5.3h7.9q0.3 1.8 1.9 3 1.6 1.3 4.2 1.3 2.6 0 3.7-1.1 1.2-1 1.2-2.4 0-1.9-1.7-2.6-1.7-0.7-4.7-1.4-2-0.4-4-1-2-0.6-3.7-1.5-1.6-1-2.7-2.5-1-1.5-1-3.7 0-4 3.2-6.7 3.2-2.8 9-2.8 5.3 0 8.5 2.5 3.2 2.5 3.8 6.9h-7.3q-0.7-3.3-5.1-3.3-2.2 0-3.4 0.8-1.1 0.9-1.1 2.1 0 1.4 1.7 2.2 1.8 0.8 4.7 1.4 3.2 0.8 5.8 1.7 2.7 0.8 4.2 2.6 1.6 1.7 1.6 4.9 0.1 2.8-1.4 5.1-1.6 2.2-4.4 3.5-2.9 1.3-6.8 1.3z"/><path class="c" d="m174.6 56.9q-5.7 0-8.8-3.5-3-3.6-3-10.4v-17h7.7v16.3q0 3.9 1.6 5.9 1.6 2.1 5 2.1 3.2 0 5.3-2.3 2.1-2.3 2.1-6.5v-15.5h7.8v30.1h-6.9l-0.6-5.1q-1.4 2.7-4.1 4.3-2.6 1.6-6.1 1.6z"/><path class="c" d="m198.9 56.1v-30.1h6.9l0.6 5.1q1.4-2.7 4-4.3 2.7-1.6 6.3-1.6 5.6 0 8.7 3.6 3.1 3.5 3.1 10.3v17h-7.8v-16.3q0-3.9-1.6-5.9-1.6-2.1-4.9-2.1-3.3 0-5.4 2.3-2.1 2.3-2.1 6.5v15.5z"/><path class="c" d="m247 56.9q-4 0-7.1-1.3-3-1.3-4.8-3.7-1.8-2.3-2.2-5.3h7.8q0.4 1.8 2 3 1.6 1.3 4.2 1.3 2.5 0 3.7-1.1 1.2-1 1.2-2.4 0-1.9-1.7-2.6-1.7-0.7-4.7-1.4-2-0.4-4-1-2-0.6-3.7-1.5-1.6-1-2.7-2.5-1-1.5-1-3.7 0-4 3.2-6.7 3.2-2.8 9-2.8 5.3 0 8.5 2.5 3.2 2.5 3.8 6.9h-7.4q-0.6-3.3-5-3.3-2.2 0-3.4 0.8-1.2 0.9-1.2 2.1 0 1.4 1.8 2.2 1.8 0.8 4.7 1.4 3.1 0.8 5.8 1.7 2.6 0.8 4.2 2.6 1.6 1.7 1.6 4.9 0.1 2.8-1.5 5.1-1.5 2.2-4.3 3.5-2.9 1.3-6.8 1.3z"/><path class="c" d="m279.9 56.9q-4.6 0-8.1-2-3.6-2-5.6-5.6-2-3.6-2-8.2 0-4.7 2-8.2 2-3.6 5.6-5.6 3.5-2.1 8.1-2.1 5.8 0 9.7 3.1 4 3 5.1 8.3h-8.2q-0.6-2.2-2.4-3.5-1.8-1.2-4.2-1.2-3.3 0-5.5 2.4-2.3 2.4-2.3 6.8 0 4.3 2.3 6.7 2.2 2.4 5.5 2.4 2.4 0 4.2-1.2 1.8-1.2 2.4-3.4h8.2q-1.1 5.1-5.1 8.2-3.9 3.1-9.7 3.1z"/><path class="c" d="m310.7 56.9q-3.9 0-6.4-1.3-2.5-1.2-3.7-3.3-1.2-2.1-1.2-4.5 0-4.2 3.3-6.9 3.2-2.6 9.8-2.6h7.7v-0.7q0-3.1-1.8-4.6-1.7-1.4-4.4-1.4-2.3 0-4.1 1.1-1.8 1.1-2.2 3.3h-7.6q0.3-3.3 2.2-5.7 1.9-2.4 5-3.7 3-1.4 6.8-1.4 6.5 0 10.2 3.3 3.7 3.2 3.7 9.1v18.5h-6.7l-0.7-4.8q-1.3 2.4-3.7 4-2.4 1.6-6.2 1.6zm1.8-6.1q3.3 0 5.2-2.2 1.8-2.2 2.3-5.4h-6.6q-3.1 0-4.5 1.1-1.3 1.1-1.3 2.8 0 1.8 1.3 2.7 1.4 1 3.6 1z"/><path class="c" d="m334 56.1v-43.8h7.8v43.8z"/><path class="c" d="m363.1 56.9q-4.5 0-8.1-2-3.5-1.9-5.5-5.4-2-3.6-2-8.2 0-4.7 2-8.3 1.9-3.7 5.4-5.7 3.5-2.1 8.3-2.1 4.4 0 7.8 2 3.4 1.9 5.4 5.3 1.9 3.4 1.9 7.5 0 0.7-0.1 1.4 0 0.7-0.1 1.5h-22.9q0.3 3.6 2.5 5.6 2.2 2 5.4 2 2.3 0 4-1.1 1.6-1 2.4-2.7h7.9q-0.9 2.8-2.9 5.2-1.9 2.3-4.8 3.6-2.9 1.4-6.6 1.4zm0.1-25.3q-2.9 0-5.1 1.6-2.2 1.6-2.8 4.9h15.1q-0.2-3-2.2-4.8-2-1.7-5-1.7z"/><path class="c" d="m394.8 56.9q-5.6 0-8.7-3.5-3.1-3.6-3.1-10.4v-17h7.7v16.3q0 3.9 1.6 5.9 1.6 2.1 5 2.1 3.2 0 5.3-2.3 2.1-2.3 2.1-6.5v-15.5h7.8v30.1h-6.8l-0.7-5.1q-1.4 2.7-4 4.3-2.7 1.6-6.2 1.6z"/><path class="c" d="m419.1 69.5v-43.5h7l0.8 4.3q1.5-2 3.9-3.5 2.4-1.6 6.2-1.6 4.3 0 7.6 2.1 3.4 2.1 5.3 5.7 2 3.6 2 8.1 0 4.6-2 8.1-1.9 3.6-5.3 5.7-3.3 2-7.6 2-3.4 0-5.9-1.3-2.6-1.3-4.2-3.6v17.5zm16.3-19.4q3.7 0 6.1-2.5 2.5-2.5 2.5-6.5 0-3.9-2.5-6.5-2.4-2.5-6.1-2.5-3.8 0-6.2 2.5-2.4 2.5-2.4 6.5 0 3.9 2.4 6.4 2.4 2.6 6.2 2.6z"/><path class="c" d="m147.4 106.3q-4.6 0-8.1-2-3.5-2-5.6-5.6-2-3.6-2-8.3 0-4.6 2-8.2 2.1-3.6 5.6-5.6 3.5-2 8.1-2 5.8 0 9.8 3 3.9 3 5 8.3h-8.2q-0.6-2.1-2.4-3.4-1.8-1.2-4.2-1.2-3.2 0-5.5 2.4-2.2 2.4-2.2 6.7 0 4.4 2.2 6.8 2.3 2.4 5.5 2.4 2.4 0 4.2-1.2 1.8-1.2 2.4-3.5h8.2q-1.1 5.2-5 8.3-4 3.1-9.8 3.1z"/><path class="c" d="m182.3 106.3q-4.4 0-7.9-2-3.5-2-5.5-5.6-2.1-3.6-2.1-8.3 0-4.6 2.1-8.2 2.1-3.6 5.6-5.6 3.5-2 7.9-2 4.3 0 7.8 2 3.5 2 5.5 5.6 2 3.6 2 8.2 0 4.7-2 8.3-2 3.6-5.6 5.6-3.5 2-7.8 2zm0-6.8q3 0 5.3-2.3 2.2-2.3 2.2-6.8 0-4.5-2.2-6.7-2.3-2.3-5.2-2.3-3.2 0-5.4 2.3-2.2 2.2-2.2 6.7 0 4.5 2.2 6.8 2.2 2.3 5.3 2.3z"/><path class="c" d="m203.3 105.5v-30.1h6.9l0.7 4q1.4-2.2 3.8-3.5 2.4-1.3 5.6-1.3 7 0 9.9 5.4 1.7-2.5 4.4-3.9 2.8-1.5 6.1-1.5 5.9 0 9.1 3.6 3.1 3.5 3.1 10.3v17h-7.8v-16.3q0-3.9-1.5-5.9-1.5-2.1-4.5-2.1-3.2 0-5.1 2.3-1.9 2.3-1.9 6.5v15.5h-7.8v-16.3q0-3.9-1.6-5.9-1.5-2.1-4.6-2.1-3.1 0-5.1 2.3-1.9 2.3-1.9 6.5v15.5z"/><path class="c" d="m259 118.9v-43.5h6.9l0.9 4.3q1.4-2 3.8-3.5 2.4-1.6 6.3-1.6 4.2 0 7.6 2.1 3.3 2.1 5.3 5.7 1.9 3.5 1.9 8.1 0 4.6-1.9 8.1-2 3.6-5.3 5.6-3.4 2.1-7.6 2.1-3.4 0-6-1.3-2.5-1.3-4.1-3.6v17.5zm16.2-19.4q3.7 0 6.2-2.5 2.4-2.5 2.4-6.5 0-3.9-2.4-6.5-2.5-2.6-6.2-2.6-3.7 0-6.2 2.6-2.3 2.5-2.3 6.4 0 4 2.3 6.5 2.5 2.6 6.2 2.6z"/><path class="c" d="m308.6 106.3q-5.6 0-8.7-3.6-3.1-3.5-3.1-10.3v-17h7.7v16.3q0 3.9 1.6 5.9 1.6 2.1 5 2.1 3.2 0 5.3-2.3 2.1-2.3 2.1-6.5v-15.5h7.8v30.1h-6.8l-0.6-5.1q-1.5 2.7-4.1 4.3-2.7 1.6-6.2 1.6z"/><path class="c" d="m346.4 105.5q-4.7 0-7.6-2.3-2.9-2.3-2.9-8.2v-13.1h-5.1v-6.5h5.1l0.9-8.1h6.9v8.1h8.2v6.5h-8.2v13.2q0 2.2 1 3 0.9 0.8 3.2 0.8h3.8v6.6z"/><path class="c" d="m371.9 106.3q-4.6 0-8.1-2-3.5-1.9-5.5-5.5-2-3.5-2-8.1 0-4.7 1.9-8.3 2-3.7 5.5-5.7 3.5-2.1 8.2-2.1 4.5 0 7.9 2 3.4 1.9 5.3 5.3 1.9 3.4 1.9 7.5 0 0.7 0 1.4 0 0.7-0.1 1.5h-22.9q0.2 3.6 2.4 5.6 2.3 2 5.4 2 2.4 0 4-1.1 1.6-1 2.4-2.8h7.9q-0.8 2.9-2.8 5.3-2 2.3-4.9 3.6-2.9 1.4-6.5 1.4zm0-25.3q-2.8 0-5 1.6-2.2 1.6-2.8 4.9h15q-0.2-3-2.2-4.8-2-1.7-5-1.7z"/><path class="c" d="m392.3 105.5v-30.1h6.9l0.7 5.6q1.7-2.9 4.5-4.6 2.8-1.8 6.7-1.8v8.2h-2.2q-2.6 0-4.6 0.8-2 0.8-3.1 2.8-1.1 1.9-1.1 5.4v13.7z"/></svg>